<?xml version="1.0" standalone="no"?>
<!DOCTYPE svg PUBLIC "-//W3C//DTD SVG 1.1//EN" "http://www.w3.org/Graphics/SVG/1.1/DTD/svg11.dtd">
<svg xmlns="http://www.w3.org/2000/svg">
<metadata>Copyright (C) 2023 by original authors @ fontello.com</metadata>
<defs>
<font id="fontello" horiz-adv-x="1000" >
<font-face font-family="fontello" font-weight="400" font-stretch="normal" units-per-em="1000" ascent="860" descent="-140" />
<missing-glyph horiz-adv-x="1000" />
<glyph glyph-name="trash-alt" unicode="&#xe800;" d="M523 48c-12 0-23 10-23 23v422c0 13 11 23 23 23h47c13 0 24-10 24-23v-422c0-13-11-23-24-23h-47z m321 656c17 0 31-14 31-31v-32c0-17-14-31-31-31h-31v-656c0-52-42-94-94-94h-563c-51 0-93 42-93 94v656h-32c-17 0-31 14-31 31v32c0 17 14 31 31 31h161l67 111c15 25 51 45 80 45h0 197 0c29 0 65-20 80-45l67-111h161z m-508 57l-34-57h272l-35 57c-1 3-6 5-10 5h0-183 0c-4 0-8-2-10-5z m383-807v656h-563v-656h563z m-414 94c-13 0-24 10-24 23v422c0 13 11 23 24 23h47c13 0 23-10 23-23v-422c0-13-10-23-23-23h-47z" horiz-adv-x="875" />

<glyph glyph-name="circle" unicode="&#xe801;" d="M500 844c268 0 484-216 484-484s-216-484-484-484-484 216-484 484 216 484 484 484z" horiz-adv-x="1000" />

<glyph glyph-name="eye" unicode="&#xe802;" d="M563 579c0 0 0 0 0 0 121 0 218-98 218-218 0-121-97-219-218-219s-218 98-218 219c0 17 4 44 9 60 13-8 37-14 52-14 61 0 110 49 110 109 0 16-7 39-14 53 16 5 43 10 61 10z m555-190c4-8 7-21 7-29s-3-21-7-28c-106-207-315-347-555-347s-450 140-556 347c-4 7-7 20-7 28s3 21 7 29c106 206 315 346 556 346s449-140 555-346z m-555-310c192 0 369 107 464 281-95 174-272 281-464 281s-370-107-465-281c95-174 272-281 465-281z" horiz-adv-x="1125" />

<glyph glyph-name="file-word" unicode="&#xe804;" d="M723 669c17-18 27-42 27-67v-648c0-52-42-94-94-94h-562c-52 0-94 42-94 94v812c0 52 42 94 94 94h398c25 0 49-10 67-27z m-74-59l-149 149v-149h149z m-555-656h562v562h-203c-26 0-47 21-47 47v203h-312v-812z m430 406v0h31c15 0 26-14 22-29-8-33-27-105-67-265-3-11-12-18-23-18h-48c-11 0-20 7-23 18-10 41-35 138-35 139l-5 34c-1-10-3-22-6-34l-35-139c-3-11-12-18-23-18h-49c-11 0-20 7-23 18-13 51-49 202-65 265-3 15 8 29 23 29h33c11 0 21-8 23-19 10-50 36-183 37-193 1-3 1-6 1-8 2 14 1 9 49 202 2 11 12 18 23 18h26c10 0 20-7 22-18 47-195 45-184 46-194 1-4 1-6 2-9 1 16 1 12 41 202 2 11 12 19 23 19z" horiz-adv-x="750" />

<glyph glyph-name="file-excel" unicode="&#xe805;" d="M723 669c17-18 27-42 27-67v-648c0-52-42-94-94-94h-562c-52 0-94 42-94 94v812c0 52 42 94 94 94h398c25 0 49-10 67-27z m-74-59l-149 149v-149h149z m-555-656h562v562h-203c-26 0-47 21-47 47v203h-312v-812z m414 469c18 0 29-20 20-36-31-53-89-150-90-152l90-152c9-16-2-35-20-35h-56c-9 0-17 4-21 12-44 81-27 54-56 113-11-25-13-35-56-113-4-8-12-12-20-12h-57c-18 0-29 19-20 35l90 152-90 152c-9 16 2 36 20 36h57c8 0 16-5 20-13 43-79 29-56 56-112 13 29 21 48 56 112 4 8 12 13 21 13h56z" horiz-adv-x="750" />

<glyph glyph-name="file-powerpoint" unicode="&#xe806;" d="M723 669c17-18 27-42 27-67v-648c0-52-42-94-94-94h-562c-52 0-94 42-94 94v812c0 52 42 94 94 94h398c25 0 49-10 67-27z m-74-59l-149 149v-149h149z m-555-656h562v562h-203c-26 0-47 21-47 47v203h-312v-812z m140 117v328c0 13 11 24 24 24h135c72 0 123-53 123-130 0-145-135-130-187-130v-92c0-13-10-23-23-23h-48c-13 0-24 10-24 23z m95 171h45c16 0 27 4 35 14 17 19 17 55 1 74-8 9-20 13-34 13h-47v-101h0z" horiz-adv-x="750" />

<glyph glyph-name="file-image" unicode="&#xe807;" d="M723 669c17-18 27-42 27-67v-648c0-52-42-94-94-94h-562c-52 0-94 42-94 94v812c0 52 42 94 94 94h398c25 0 49-10 67-27z m-74-59l-149 149v-149h149z m-555-656h562v562h-203c-26 0-47 21-47 47v203h-312v-812z m62 94v125l77 77c10 9 24 9 34 0l77-77 171 170c9 10 24 10 33 0l46-45v-250h-438z m94 468c52 0 94-42 94-93s-42-94-94-94-94 42-94 94 42 93 94 93z" horiz-adv-x="750" />

<glyph glyph-name="file-archive" unicode="&#xe808;" d="M251 548h62v-63h-62v63z m125 187v-62h-63v62h63z m-125-62h62v-63h-62v63z m125-63v-62h-63v62h63z m347 59c17-18 27-42 27-67v-648c0-52-42-94-94-94h-562c-52 0-94 42-94 94v812c0 52 42 94 94 94h398c25 0 49-10 67-27z m-223 90v-149h149z m156-805v562h-203c-26 0-47 21-47 47v203h-94v-31h-63v31h-155v-812h562z m-277 387l34-171c13-63-36-122-100-122-65 0-114 59-101 122l39 190v63h62v-63h43c12 0 21-8 23-19z m-66-243c35 0 63 24 63 53 0 29-28 53-63 53-35 0-63-24-63-53 0-29 28-53 63-53z m63 387v-62h-63v62h63z" horiz-adv-x="750" />

<glyph glyph-name="file-pdf" unicode="&#xe809;" d="M723 669c17-18 27-42 27-67v-648c0-52-42-94-94-94h-562c-52 0-94 42-94 94v812c0 52 42 94 94 94h398c25 0 49-10 67-27z m-74-59l-149 149v-149h149z m-555-656h562v562h-203c-26 0-47 21-47 47v203h-312v-812z m488 280c21-20 16-75-34-75-29 0-72 13-109 33-42-7-90-25-133-39-98-169-155-92-149-61 8 39 61 70 100 90 20 36 49 99 69 145-15 56-22 100-14 131 10 35 75 40 83-11 10-30-3-78-10-109 16-42 38-70 72-91 34 4 102 11 125-13z m-386-151c0-2 22 9 59 68-12-11-49-42-59-68z m159 372c-5 0-5-53 3-80 10 17 11 80-3 80z m-48-267c31 12 67 29 107 37-22 17-42 40-58 70-14-35-30-74-49-107z m257 10c7 4-4 20-73 15 64-27 73-15 73-15z" horiz-adv-x="750" />

<glyph glyph-name="file" unicode="&#xe80a;" d="M723 669c17-18 27-42 27-67v-648c0-52-42-94-94-94h-562c-52 0-94 42-94 94v812c0 52 42 94 94 94h398c25 0 49-10 67-27z m-74-59l-149 149v-149h149z m-555-656h562v562h-203c-26 0-47 21-47 47v203h-312v-812z" horiz-adv-x="750" />

<glyph glyph-name="file-alt" unicode="&#xe80b;" d="M563 376v-55c0-13-11-23-24-23h-328c-13 0-23 10-23 23v55c0 13 10 23 23 23h328c13 0 24-10 24-23z m-24-141c13 0 24-10 24-23v-55c0-13-11-24-24-24h-328c-13 0-23 11-23 24v55c0 13 10 23 23 23h328z m211 367v-648c0-52-42-94-94-94h-562c-52 0-94 42-94 94v812c0 52 42 94 94 94h398c25 0 49-10 67-27l164-164c17-18 27-42 27-67z m-250 157v-149h149z m156-805v562h-203c-26 0-47 21-47 47v203h-312v-812h562z" horiz-adv-x="750" />

<glyph glyph-name="file-audio" unicode="&#xe80c;" d="M723 669c15-15 27-45 27-67v-648c0-52-42-94-94-94h-562c-52 0-94 42-94 94v812c0 52 42 94 94 94h398c22 0 52-12 67-27z m-74-59l-149 149v-149h149z m-555-656h562v562h-203c-26 0-47 21-47 47v203h-312v-812z m281 148c0-21-25-31-40-16l-69 70h-55c-13 0-23 10-23 23v110c0 13 10 23 23 23h55l69 72c15 15 40 5 40-16v-266z m81 92c17 18 17 47 0 66-44 44 23 110 67 65 53-55 53-141 0-196-43-44-112 20-67 65z" horiz-adv-x="750" />

<glyph glyph-name="file-video" unicode="&#xe80d;" d="M723 669c15-15 27-45 27-67v-648c0-52-42-94-94-94h-562c-52 0-94 42-94 94v812c0 52 42 94 94 94h398c22 0 52-12 67-27z m-74-59l-149 149v-149h149z m-555-656h562v562h-203c-26 0-47 21-47 47v203h-312v-812z m446 413c20 19 54 5 54-23v-218c0-28-34-42-54-22l-102 102v-73c0-21-18-39-40-39h-203c-21 0-39 18-39 39v204c0 21 18 39 39 39h203c22 0 40-18 40-39v-73z" horiz-adv-x="750" />

<glyph glyph-name="file-code" unicode="&#xe80e;" d="M293 178c7-6 7-17 1-24l-34-36c-4-4-8-6-13-6-4 0-8 2-12 5l-112 106c-8 6-8 18 0 25l112 105c7 7 18 6 25-1l34-36 0 0c6-7 5-18-2-25l-64-56 64-56z m430 491c17-18 27-42 27-67v-648c0-52-42-94-94-94h-562c-52 0-94 42-94 94v812c0 52 42 94 94 94h398c25 0 49-10 67-27z m-223 90v-149h149z m156-805v562h-203c-26 0-47 21-47 47v203h-312v-812h562z m-247 488l48-14c9-2 15-12 12-21l-107-367c-3-9-12-15-21-12l-48 14c-9 2-14 12-12 21l107 367c3 10 12 15 21 12z m48-150c-7 6-7 17-1 24l34 36c7 7 18 8 25 1l112-105c8-7 8-19 0-25l-112-106c-7-7-18-6-25 1l-34 36 0 0c-6 7-5 18 2 25l64 56-64 56z" horiz-adv-x="750" />

<glyph glyph-name="search" unicode="&#xf002;" d="M986-5c19-18 19-48 0-66l-55-55c-18-19-48-19-66 0l-195 194c-9 9-14 21-14 34v31c-69-53-155-85-250-85-224 0-406 181-406 406s182 406 406 406 407-182 407-406c0-95-32-181-86-250h31c13 0 25-5 34-14z m-580 209c139 0 250 112 250 250 0 138-112 250-250 250-138 0-250-112-250-250 0-138 112-250 250-250z" horiz-adv-x="998" />

<glyph glyph-name="star" unicode="&#xf005;" d="M506 825c24 47 90 46 113 0l127-258 285-42c52-7 72-70 35-107l-206-201 48-284c9-51-45-90-90-66l-255 134-256-134c-45-24-99 15-90 66l48 284-206 201c-37 37-17 100 35 107l285 42z" horiz-adv-x="1125" />

<glyph glyph-name="user" unicode="&#xf007;" d="M438 360c-139 0-250 112-250 250s111 250 250 250 250-112 250-250-112-250-250-250z m175-62c144 0 262-118 262-263v-81c0-52-42-94-94-94h-687c-52 0-94 42-94 94v81c0 145 118 263 263 263h32c44-20 92-32 143-32s99 12 142 32h33z" horiz-adv-x="875" />

<glyph glyph-name="th-list" unicode="&#xf00b;" d="M292 438v-156c0-26-21-47-47-47h-198c-26 0-47 21-47 47v156c0 26 21 47 47 47h198c26 0 47-21 47-47z m-292-312c0 26 21 47 47 47h198c26 0 47-21 47-47v-157c0-26-21-47-47-47h-198c-26 0-47 21-47 47v157z m245 672c26 0 47-21 47-47v-157c0-25-21-46-47-46h-198c-26 0-47 21-47 46v157c0 26 21 47 47 47h198z m156-876c-26 0-47 21-47 47v157c0 26 21 47 47 47h552c26 0 47-21 47-47v-157c0-26-21-47-47-47h-552z m-47 829c0 26 21 47 47 47h552c26 0 47-21 47-47v-157c0-25-21-46-47-46h-552c-26 0-47 21-47 46v157z m47-516c-26 0-47 21-47 47v156c0 26 21 47 47 47h552c26 0 47-21 47-47v-156c0-26-21-47-47-47h-552z" horiz-adv-x="1000" />

<glyph glyph-name="check" unicode="&#xf00c;" d="M340 2l-325 325c-20 19-20 51 0 71l70 70c20 20 52 20 71 0l219-219 469 469c20 20 51 20 71 0l70-70c20-20 20-52 0-71l-575-575c-19-20-51-20-70 0z" horiz-adv-x="1000" />

<glyph glyph-name="times" unicode="&#xf00d;" d="M474 360l196-195c24-24 24-63 0-87l-44-44c-24-24-63-24-87 0l-195 196-196-196c-24-24-63-24-87 0l-43 44c-24 24-24 63 0 87l195 195-195 195c-24 25-24 63 0 87l43 44c24 24 63 24 87 0l196-196 195 196c24 24 63 24 87 0l44-44c24-24 24-63 0-87z" horiz-adv-x="687.5" />

<glyph glyph-name="cog" unicode="&#xf013;" d="M952 243c10-5 14-16 11-27-22-70-59-133-107-185-7-8-19-10-29-4l-83 48c-35-30-75-53-119-69v-96c0-11-7-21-18-23-68-15-142-16-213 0-11 2-19 12-19 23v96c-43 15-84 39-119 69l-83-48c-9-6-21-4-29 4-48 52-85 115-106 185-4 10 1 22 10 27l83 48c-8 46-8 92 0 137l-83 48c-9 6-14 17-10 28 21 70 58 132 106 185 8 8 20 10 29 4l83-48c35 30 76 53 119 69v96c0 11 8 20 18 23 69 15 142 16 214 0 10-3 18-12 18-23v-96c44-15 84-39 119-69l83 48c9 6 21 4 29-4 48-53 85-115 107-185 3-11-1-22-11-27l-83-48c8-46 8-92 0-138z m-452-39c86 0 156 70 156 156s-70 156-156 156-156-70-156-156 70-156 156-156z" horiz-adv-x="1000" />

<glyph glyph-name="home" unicode="&#xf015;" d="M548 570c3 3 10 6 15 6 4 0 11-3 15-6l360-296v-320c0-18-14-32-32-32l-218 1h0c-18 0-32 14-32 31 0 0 0 0 0 0v187c0 18-14 32-31 32h-125c-17 0-31-14-31-32v-187 0c0-17-14-31-31-31l-219-1c-17 0-31 14-31 32v320z m568-201c5-4 9-12 9-18 0-5-2-12-5-15l-50-61c-4-4-12-8-18-8-5 0-11 2-15 5l-459 379c-4 2-11 5-15 5-5 0-12-3-15-5l-460-379c-3-3-10-5-15-5-6 0-14 4-18 8l-50 61c-3 3-5 10-5 15 0 6 4 14 9 18l494 407c14 12 41 21 59 21 19 0 46-9 60-21l175-144v142c0 13 10 23 23 23h110c13 0 23-10 23-23v-271z" horiz-adv-x="1125" />

<glyph glyph-name="clock" unicode="&#xf017;" d="M500 844c268 0 484-216 484-484s-216-484-484-484-484 216-484 484 216 484 484 484z m112-683c10-8 25-6 32 5l55 75c8 11 6 26-5 33l-124 91v268c0 13-10 24-23 24h-94c-13 0-23-11-23-24v-328c0-8 3-15 9-19z" horiz-adv-x="1000" />

<glyph glyph-name="download" unicode="&#xf019;" d="M422 860h156c26 0 47-21 47-47v-328h171c35 0 52-42 28-67l-297-297c-15-14-39-14-54 0l-297 297c-25 25-7 67 28 67h171v328c0 26 21 47 47 47z m578-734v-219c0-26-21-47-47-47h-906c-26 0-47 21-47 47v219c0 26 21 47 47 47h286l96-96c39-39 103-39 142 0l96 96h286c26 0 47-21 47-47z m-242-172c0 21-18 39-39 39s-39-18-39-39 17-39 39-39 39 17 39 39z m125 0c0 21-18 39-39 39s-39-18-39-39 17-39 39-39 39 17 39 39z" horiz-adv-x="1000" />

<glyph glyph-name="print" unicode="&#xf02f;" d="M875 485c69 0 125-56 125-125v-219c0-17-14-31-31-31h-94v-188c0-34-28-62-62-62h-625c-35 0-63 28-63 62v188h-94c-17 0-31 14-31 31v219c0 69 56 125 125 125v313c0 34 28 62 63 62h536c17 0 33-7 44-18l89-89c11-11 18-27 18-44v-224z m-125-500v188h-500v-188h500z m0 438v187h-94c-17 0-31 14-31 31v94h-375v-312h500z m94-141c26 0 47 21 47 47 0 26-21 47-47 47s-47-21-47-47c0-26 21-47 47-47z" horiz-adv-x="1000" />

<glyph glyph-name="font" unicode="&#xf031;" d="M844 48c17 0 31-15 31-32v-62c0-17-14-32-31-32h-266c-17 0-31 15-31 32v62c0 17 14 32 31 32h46l-52 157h-270l-52-157h47c17 0 31-15 31-32v-62c0-17-14-32-31-32h-266c-17 0-31 15-31 32v62c0 17 14 32 31 32h52l254 729c4 12 16 21 29 21h143c13 0 25-9 29-21l254-729h52z m-503 288h192l-80 242c-10 30-14 55-15 68-2-13-7-38-15-68z" horiz-adv-x="875" />

<glyph glyph-name="image" unicode="&#xf03e;" d="M906-15h-812c-52 0-94 42-94 94v562c0 52 42 94 94 94h812c52 0 94-42 94-94v-562c0-52-42-94-94-94z m-687 641c-61 0-110-49-110-110s49-109 110-109 109 49 109 109-49 110-109 110z m-94-516h750v219l-171 171c-9 9-24 9-33 0l-265-265-108 108c-9 10-24 10-33 0l-140-139v-94z" horiz-adv-x="1000" />

<glyph glyph-name="edit" unicode="&#xf044;" d="M786 698l177-177c7-7 7-19 0-27l-427-426-181-20c-24-3-45 18-42 42l20 181 426 427c8 7 20 7 27 0z m317 44c29-29 29-78 0-108l-69-69c-8-7-20-7-27 0l-176 176c-8 8-8 20 0 27l69 70c30 29 78 29 107 0z m-353-558c0 6 3 12 7 16l78 79c15 14 40 4 40-17v-308c0-52-42-94-94-94h-687c-52 0-94 42-94 94v687c0 52 42 94 94 94h558c21 0 31-25 17-40l-79-78c-4-4-10-7-16-7h-449v-625h625v199z" horiz-adv-x="1123" />

<glyph glyph-name="chevron-left" unicode="&#xf053;" d="M67 393l380 380c18 18 48 18 66 0l45-45c18-18 18-47 0-66l-301-302 301-302c18-19 18-48 0-67l-45-44c-18-18-48-18-66 0l-380 380c-18 18-18 48 0 66z" horiz-adv-x="625" />

<glyph glyph-name="chevron-right" unicode="&#xf054;" d="M558 327l-380-380c-18-18-48-18-66 0l-45 44c-18 19-18 48 0 67l301 302-301 302c-18 19-18 48 0 66l45 45c18 18 48 18 66 0l380-380c18-18 18-48 0-66z" horiz-adv-x="623" />

<glyph glyph-name="plus-circle" unicode="&#xf055;" d="M500 844c268 0 484-216 484-484s-216-484-484-484-484 216-484 484 216 484 484 484z m281-539v110c0 13-10 23-23 23h-180v180c0 13-10 23-23 23h-110c-13 0-23-10-23-23v-180h-180c-13 0-23-10-23-23v-110c0-13 10-23 23-23h180v-180c0-13 10-23 23-23h110c13 0 23 10 23 23v180h180c13 0 23 10 23 23z" horiz-adv-x="1000" />

<glyph glyph-name="ban" unicode="&#xf05e;" d="M500 844c268 0 484-216 484-484s-216-484-484-484-484 217-484 484 217 484 484 484z m254-230c-128 128-323 137-460 41l501-501c96 137 87 332-41 460z m-508-508c128-128 323-137 460-40l-500 500c-97-137-88-332 40-460z" horiz-adv-x="1000" />

<glyph glyph-name="arrow-left" unicode="&#xf060;" d="M503-9l-43-44c-19-18-48-18-67 0l-379 380c-19 18-19 48 0 66l379 380c19 18 48 18 67 0l43-44c19-18 18-48-1-67l-235-224h561c26 0 47-21 47-47v-62c0-26-21-47-47-47h-561l235-224c19-18 20-49 1-67z" horiz-adv-x="875" />

<glyph glyph-name="arrow-right" unicode="&#xf061;" d="M372 729l43 44c19 18 49 18 67 0l379-380c19-18 19-48 0-66l-379-380c-19-18-48-18-67 0l-43 44c-18 18-18 49 1 67l235 224h-561c-26 0-47 21-47 47v62c0 26 21 47 47 47h561l-235 224c-19 19-20 49-1 67z" horiz-adv-x="875" />

<glyph glyph-name="arrow-up" unicode="&#xf062;" d="M68 295l-43 43c-19 18-19 48 0 66l379 380c19 18 48 18 67 0l379-380c18-18 18-48 0-66l-43-43c-19-19-49-18-67 1l-224 235v-562c0-26-21-47-47-47h-63c-26 0-47 21-47 47v562l-224-236c-18-19-48-19-67 0z" horiz-adv-x="873" />

<glyph glyph-name="arrow-down" unicode="&#xf063;" d="M807 425l43-43c19-18 19-48 0-66l-379-380c-19-18-48-18-66 0l-380 380c-19 18-19 48 0 66l43 43c19 19 49 19 67 0l224-236v562c0 26 21 47 47 47h63c26 0 47-21 47-47v-562l224 236c18 19 48 19 67 0z" horiz-adv-x="875" />

<glyph glyph-name="plus" unicode="&#xf067;" d="M813 454c34 0 62-28 62-63v-62c0-35-28-63-62-63h-282v-281c0-35-28-63-62-63h-63c-34 0-62 28-62 63v281h-281c-35 0-63 28-63 63v62c0 35 28 63 63 63h281v281c0 35 28 63 62 63h63c34 0 62-28 62-63v-281h282z" horiz-adv-x="875" />

<glyph glyph-name="folder" unicode="&#xf07b;" d="M906 610c52 0 94-42 94-94v-437c0-52-42-94-94-94h-812c-52 0-94 42-94 94v562c0 52 42 94 94 94h286c17 0 33-7 45-18l106-107h375z m0-531v437h-388c-16 0-32 7-44 19l-107 106h-273v-562h812z" horiz-adv-x="1000" />

<glyph glyph-name="folder-open" unicode="&#xf07c;" d="M1031 423c74 0 119-82 80-144l-156-250c-18-27-48-44-80-44h-781c-52 0-94 42-94 94v562c0 52 42 94 94 94h312l125-125h313c52 0 94-42 94-94v-93h93z m-937 207v-456l123 203c17 28 47 46 80 46h547v82c0 6-5 11-12 11h-340l-125 125h-261c-7 0-12-5-12-11z m781-551l156 250h-740l-150-250h734z" horiz-adv-x="1123" />

<glyph glyph-name="chart-bar" unicode="&#xf080;" d="M650 235c-12 0-25 13-25 25v263c0 12 13 25 25 25h75c13 0 25-13 25-25v-263c0-12-12-25-25-25h-75z m188 0c-13 0-25 13-25 25v450c0 13 12 25 25 25h75c12 0 25-12 25-25v-450c0-12-13-25-25-25h-75z m-563 0c-12 0-25 13-25 25v138c0 12 13 25 25 25h75c13 0 25-13 25-25v-138c0-12-12-25-25-25h-75z m188 0c-13 0-25 13-25 25v388c0 12 12 25 25 25h75c12 0 25-13 25-25v-388c0-12-13-25-25-25h-75z m506-125c17 0 31-14 31-31v-63c0-17-14-31-31-31h-906c-35 0-63 28-63 63v656c0 17 14 31 31 31h63c17 0 31-14 31-31v-594h844z" horiz-adv-x="1000" />

<glyph glyph-name="key" unicode="&#xf084;" d="M1000 516c0-190-154-343-344-343-22 0-43 2-64 6l-47-53c-7-9-23-16-35-16h0-72v-78c0-26-21-47-47-47h-78v-78c0-26-21-47-47-47h-219c-26 0-47 21-47 47v152c0 13 5 25 14 34l316 316c-11 33-17 70-17 107 0 190 153 344 343 344 191 0 344-153 344-344z m-344 94c0-52 42-94 94-94s94 42 94 94-42 94-94 94-94-42-94-94z" horiz-adv-x="1000" />

<glyph glyph-name="upload" unicode="&#xf093;" d="M578 110h-156c-26 0-47 21-47 47v328h-171c-35 0-52 42-28 67l297 297c15 15 39 15 54 0l297-297c24-25 7-67-28-67h-171v-328c0-26-21-47-47-47z m422 16v-219c0-26-21-47-47-47h-906c-26 0-47 21-47 47v219c0 26 21 47 47 47h266v-16c0-60 49-109 109-109h156c61 0 110 49 110 109v16h265c26 0 47-21 47-47z m-242-172c0 21-18 39-39 39s-39-18-39-39 17-39 39-39 39 17 39 39z m125 0c0 21-18 39-39 39s-39-18-39-39 17-39 39-39 39 17 39 39z" horiz-adv-x="1000" />

<glyph glyph-name="phone" unicode="&#xf095;" d="M964 812c21-5 36-24 36-46 0-501-406-906-906-906-22 0-41 15-46 36l-47 204c-5 22 7 44 28 53l218 94c19 8 42 3 55-13l97-119c153 72 276 197 346 346l-118 97c-17 13-22 36-14 55l94 219c9 20 32 32 54 27z" horiz-adv-x="1000" />

<glyph glyph-name="filter" unicode="&#xf0b0;" d="M953 860c42 0 63-51 33-80l-361-361v-512c0-38-43-60-74-39l-156 110c-12 9-20 23-20 38v403l-361 361c-30 30-9 80 33 80h906z" horiz-adv-x="1000" />

<glyph glyph-name="users" unicode="&#xf0c0;" d="M188 423c-69 0-125 56-125 125s56 125 125 125 125-57 125-125-57-125-125-125z m875 0c-69 0-125 56-125 125s56 125 125 125 125-57 125-125-57-125-125-125z m62-63c69 0 125-56 125-125v-62c0-35-28-63-62-63h-129c-12 93-68 171-147 214 23 22 54 36 88 36h125z m-500 0c-121 0-219 98-219 219s98 219 219 219 219-98 219-219-98-219-219-219z m150-62c124 0 225-101 225-225v-57c0-52-42-94-94-94h-562c-52 0-94 42-94 94v57c0 124 101 225 225 225h16c41-20 86-32 134-32s93 12 134 32h16z m-437 26c-79-43-134-121-147-214h-128c-35 0-63 28-63 63v62c0 69 56 125 125 125h125c34 0 65-14 88-36z" horiz-adv-x="1250" />

<glyph glyph-name="link" unicode="&#xf0c1;" d="M638 498c117-117 115-304 1-419-1 0-1-1-1-1l-131-131c-116-116-304-116-420 0-116 116-116 304 0 420l72 72c20 19 53 7 54-21 1-34 7-69 19-103 3-11 1-23-8-32l-25-26c-55-54-57-143-3-199 55-55 145-56 200-1l131 132c56 55 55 144 0 198-7 8-14 13-20 17-7 5-13 16-13 25-1 20 6 42 23 58l41 41c10 11 27 12 40 4 12-9 30-24 40-34z m275 275c116-116 116-304 0-420l-72-72c-19-19-53-7-54 21-1 34-7 69-18 103-4 11-2 24 7 32l25 26c55 54 57 143 3 199-55 56-145 56-200 1l-131-131c-55-56-55-145 0-199 7-8 14-13 20-17 7-5 13-16 13-25 1-20-6-42-22-58l-42-41c-10-11-27-12-40-3-12 8-30 23-40 33-117 117-115 304-1 419 1 0 1 1 1 1l131 131c116 116 304 116 420 0z" horiz-adv-x="1000" />

<glyph glyph-name="flask" unicode="&#xf0c3;" d="M854 72c57-92-9-212-117-212h-598c-109 0-175 120-118 212l229 368v295h-16c-26 0-46 21-46 47v31c0 26 20 47 46 47h407c26 0 47-21 47-47v-31c0-26-21-47-47-47h-16v-295z m-585 163h336l-94 152c-7 10-11 22-11 36v312h-125v-312c0-14-4-26-11-36z" horiz-adv-x="875" />

<glyph glyph-name="cut" unicode="&#xf0c4;" d="M543 360l325-325c9-9 9-24 0-33-64-64-168-64-232 0l-225 225-49-48c8-21 13-45 13-69 0-104-84-188-187-188s-188 84-188 188 84 188 188 188c8 0 17-1 26-2l64 64-64 64c-9-1-18-1-26-1-104 0-188 83-188 187s84 188 188 188 187-84 187-188c0-24-5-47-13-69l49-48 225 225c64 64 168 64 232 0 9-9 9-24 0-33z m-355 188c34 0 62 28 62 62s-28 63-62 63-63-28-63-63 28-62 63-62z m0-500c34 0 62 28 62 62s-28 63-62 63-63-28-63-63 28-62 63-62z" horiz-adv-x="873" />

<glyph glyph-name="copy" unicode="&#xf0c5;" d="M848 731c15-15 27-45 27-66v-524c0-51-42-93-94-93h-156v-94c0-52-42-94-94-94h-437c-52 0-94 42-94 94v625c0 52 42 94 94 94h156v93c0 52 42 94 94 94h336c21 0 51-12 66-27z m-328-777c6 0 11 5 11 11v83h-187c-52 0-94 42-94 93v438h-144c-7 0-12-5-12-12v-602c0-6 5-11 12-11h414z m250 187c6 0 11 6 11 12v395h-172c-25 0-46 21-46 46v172h-207c-7 0-12-5-12-11v-602c0-6 5-12 12-12h414z m11 500v19 0c0 3-1 7-3 8l-95 95c-2 2-5 3-8 3h-19v-125h125z" horiz-adv-x="875" />

<glyph glyph-name="square" unicode="&#xf0c8;" d="M781 798c52 0 94-42 94-94v-688c0-52-42-94-94-94h-687c-52 0-94 42-94 94v688c0 52 42 94 94 94h687z m-11-782c6 0 11 6 11 12v664c0 7-5 12-11 12h-664c-7 0-12-5-12-12v-664c0-6 5-12 12-12h664z" horiz-adv-x="875" />

<glyph glyph-name="bars" unicode="&#xf0c9;" d="M31 602c-17 0-31 14-31 31v79c0 17 14 31 31 31h813c17 0 31-14 31-31v-79c0-17-14-31-31-31h-813z m0-312c-17 0-31 14-31 31v78c0 17 14 31 31 31h813c17 0 31-14 31-31v-78c0-17-14-31-31-31h-813z m0-313c-17 0-31 14-31 31v79c0 17 14 31 31 31h813c17 0 31-14 31-31v-79c0-17-14-31-31-31h-813z" horiz-adv-x="875" />

<glyph glyph-name="list-ul" unicode="&#xf0ca;" d="M188 673c0-52-42-94-94-94s-94 42-94 94 42 93 94 93 94-42 94-93z m-94-219c52 0 94-42 94-94s-42-94-94-94-94 42-94 94 42 94 94 94z m0-313c52 0 94-42 94-93s-42-94-94-94-94 42-94 94 42 93 94 93z m187 461c-17 0-31 14-31 31v79c0 17 14 31 31 31h688c17 0 31-14 31-31v-79c0-17-14-31-31-31h-688z m0-312c-17 0-31 14-31 31v78c0 17 14 31 31 31h688c17 0 31-14 31-31v-78c0-17-14-31-31-31h-688z m0-313c-17 0-31 14-31 31v79c0 17 14 31 31 31h688c17 0 31-14 31-31v-79c0-17-14-31-31-31h-688z" horiz-adv-x="1000" />

<glyph glyph-name="columns" unicode="&#xf0db;" d="M906 798c52 0 94-42 94-94v-688c0-52-42-94-94-94h-812c-52 0-94 42-94 94v688c0 52 42 94 94 94h812z m-468-750v500h-313v-500h313z m437 0v500h-312v-500h312z" horiz-adv-x="1000" />

<glyph glyph-name="sort" unicode="&#xf0dc;" d="M80 298h465c42 0 63-51 33-81l-232-232c-19-18-48-18-66 0l-233 232c-30 30-9 81 33 81z m498 205c30-30 9-80-33-80h-465c-42 0-63 50-33 80l233 232c18 18 47 18 66 0z" horiz-adv-x="625" />

<glyph glyph-name="sort-down" unicode="&#xf0dd;" d="M80 298h465c42 0 63-51 33-81l-232-232c-19-18-48-18-66 0l-233 232c-30 30-9 81 33 81z" horiz-adv-x="625" />

<glyph glyph-name="sort-up" unicode="&#xf0de;" d="M545 423h-465c-42 0-63 50-33 80l232 232c19 18 48 18 67 0l232-232c30-30 9-80-33-80z" horiz-adv-x="623" />

<glyph glyph-name="envelope" unicode="&#xf0e0;" d="M906 735c52 0 94-42 94-94v-562c0-52-42-94-94-94h-812c-52 0-94 42-94 94v562c0 52 42 94 94 94h812z m0-94h-812v-79c44-36 113-92 263-208 33-26 98-88 143-88 45 0 111 62 143 88 150 116 220 172 263 208v79z m-812-562h812v362c-44-35-108-85-205-161-44-35-118-108-201-107-84-1-159 73-201 107-97 76-160 126-205 161v-362z" horiz-adv-x="1000" />

<glyph glyph-name="bolt" unicode="&#xf0e7;" d="M578 548c36 0 59-40 41-71l-344-594c-9-14-24-23-41-23-30 0-52 28-45 58l90 380h-232c-28 0-50 25-47 53l63 468c3 24 23 41 46 41h282c30 0 53-29 45-59l-83-253h225z" horiz-adv-x="625" />

<glyph glyph-name="desktop" unicode="&#xf108;" d="M1031 860c52 0 94-42 94-94v-625c0-51-42-93-94-93h-375l32-94h140c26 0 47-21 47-47s-21-47-47-47h-531c-26 0-47 21-47 47s21 47 47 47h141l31 94h-375c-52 0-94 42-94 93v625c0 52 42 94 94 94h937z m-31-687v562h-875v-562h875z" horiz-adv-x="1125" />

<glyph glyph-name="tablet" unicode="&#xf10a;" d="M781 860c52 0 94-42 94-94v-812c0-52-42-94-94-94h-687c-52 0-94 42-94 94v812c0 52 42 94 94 94h687z m-343-938c34 0 62 28 62 63s-28 63-62 63-63-28-63-63 28-63 63-63z" horiz-adv-x="875" />

<glyph glyph-name="mobile" unicode="&#xf10b;" d="M531 860c52 0 94-42 94-94v-812c0-52-42-94-94-94h-437c-52 0-94 42-94 94v812c0 52 42 94 94 94h437z m-218-938c34 0 62 28 62 63s-28 63-62 63-63-28-63-63 28-63 63-63z" horiz-adv-x="625" />

<glyph glyph-name="info" unicode="&#xf129;" d="M39 31h39v283h-39c-21 0-39 17-39 39v93c0 22 18 39 39 39h219c21 0 39-17 39-39v-415h39c22 0 39-17 39-39v-93c0-22-17-39-39-39h-297c-21 0-39 17-39 39v93c0 22 18 39 39 39z m149 829c77 0 140-63 140-141s-63-140-140-140-141 63-141 140 63 141 141 141z" horiz-adv-x="375" />

<glyph glyph-name="calendar" unicode="&#xf133;" d="M781 735c52 0 94-42 94-94v-687c0-52-42-94-94-94h-687c-52 0-94 42-94 94v687c0 52 42 94 94 94h94v102c0 13 10 23 23 23h78c13 0 24-10 24-23v-102h250v102c0 13 10 23 23 23h78c13 0 24-10 24-23v-102h93z m-11-781c6 0 11 5 11 11v583h-687v-583c0-6 5-11 12-11h664z" horiz-adv-x="875" />

<glyph glyph-name="ellipsis-v" unicode="&#xf142;" d="M188 501c77 0 140-63 140-141s-63-141-140-141-141 63-141 141 63 141 141 141z m-141 203c0 78 63 140 141 140s140-62 140-140-63-141-140-141-141 63-141 141z m0-688c0 78 63 141 141 141s140-63 140-141-63-140-140-140-141 62-141 140z" horiz-adv-x="375" />

<glyph glyph-name="minus-square" unicode="&#xf146;" d="M211 305c-13 0-23 11-23 24v62c0 13 10 24 23 24h453c13 0 24-11 24-24v-62c0-13-11-24-24-24h-453z m664 399v-688c0-52-42-94-94-94h-687c-52 0-94 42-94 94v688c0 52 42 94 94 94h687c52 0 94-42 94-94z m-94-676v664c0 7-5 12-11 12h-664c-7 0-12-5-12-12v-664c0-6 5-12 12-12h664c6 0 11 6 11 12z" horiz-adv-x="875" />

<glyph glyph-name="check-square" unicode="&#xf14a;" d="M781 798c52 0 94-42 94-94v-688c0-52-42-94-94-94h-687c-52 0-94 42-94 94v688c0 52 42 94 94 94h687z m0-782v688h-687v-688h687z m-70 472l-337-334c-9-9-24-9-33 0l-177 179c-9 9-9 24 0 33l44 44c9 9 24 9 33 0l117-118 276 274c9 9 24 9 33 0l44-44c10-10 9-24 0-34z" horiz-adv-x="875" />

<glyph glyph-name="dollar-sign" unicode="&#xf155;" d="M409 404c113-33 183-156 141-277-30-86-115-140-206-142v-94c0-17-14-31-31-31h-63c-17 0-31 14-31 31v94c-62 0-121 21-169 59-16 12-18 34-4 47l68 67c10 10 26 12 38 4 20-13 43-21 67-21h130c32 0 57 26 57 58 0 25-17 48-41 55l-200 59c-87 25-156 98-164 188-12 127 89 234 213 234h5v94c0 17 14 31 31 31h63c17 0 31-14 31-31v-94c61 0 121-21 169-59 15-11 17-34 3-47l-68-67c-10-10-26-12-38-4-19 14-43 21-67 21h-129c-32 0-58-26-58-58 0-25 17-48 42-55z" horiz-adv-x="562.5" />

<glyph glyph-name="graduation-cap" unicode="&#xf19d;" d="M1216 561c46-14 46-75 0-89l-545-168c-40-12-74-5-92 0l-382 118c-24-17-39-43-40-72 18-11 31-30 31-52 0-22-12-39-28-51l50-224c5-19-10-38-30-38h-110c-20 0-35 19-30 38l50 224c-16 12-27 29-27 51 0 23 13 42 32 53 1 34 14 66 35 92l-95 29c-47 14-47 75 0 89l544 167c30 9 62 9 92 0z m-527-316l283 87 28-222c0-69-168-125-375-125s-375 56-375 125l28 222 283-87c25-8 72-17 128 0z" horiz-adv-x="1250" />

<glyph glyph-name="google" unicode="&#xf1a0;" d="M953 349c0-277-189-473-469-473-268 0-484 216-484 484s216 484 484 484c131 0 241-47 325-126l-132-127c-172 166-493 41-493-231 0-169 135-306 300-306 192 0 264 138 275 209h-275v167h462c4-25 7-49 7-81z" horiz-adv-x="953.1" />

<glyph glyph-name="database" unicode="&#xf1c0;" d="M875 717v-89c0-79-196-143-437-143s-438 64-438 143v89c0 79 196 143 438 143s437-64 437-143z m0-201v-201c0-78-196-142-437-142s-438 64-438 142v201c94-64 266-95 438-95s343 31 437 95z m0-312v-201c0-79-196-143-437-143s-438 64-438 143v201c94-65 266-95 438-95s343 30 437 95z" horiz-adv-x="875" />

<glyph glyph-name="paper-plane" unicode="&#xf1d8;" d="M930 854c34 19 76-9 69-49l-140-843c-5-30-37-48-65-36l-243 102-124-151c-28-33-83-15-83 31v157l470 573c9 12-6 26-16 17l-562-495-207 87c-35 15-40 64-5 85z" horiz-adv-x="998" />

<glyph glyph-name="history" unicode="&#xf1da;" d="M984 361c1-267-217-485-484-485-115-1-221 40-304 107-22 17-23 50-4 69l22 22c17 17 44 19 63 4 61-48 139-77 223-77 199 0 359 160 359 359 0 199-160 359-359 359-95 0-182-37-246-97l99-99c20-20 6-54-22-54h-284c-17 0-31 14-31 32v284c0 27 33 41 53 22l96-97c87 83 205 134 335 134 267 0 484-216 484-483z m-353-154c-16-20-45-24-66-8l-127 99v265c0 26 21 47 46 47h32c26 0 47-21 47-47v-204l79-61c20-16 24-46 8-66z" horiz-adv-x="1000" />

<glyph glyph-name="word" unicode="&#xf1e3;" d="M969 704v-688q0-12-9-22t-22-9h-344v-100l-563 130v690l563 130v-100h344q12 0 22-9t9-22z m-548-502l83 356-71-4-42-235q-2-10-3-19t-2-20h0q-1 10-2 19t-3 19l-48 230-68-4-49-220q-2-9-3-19t-2-19h-1q0 9-1 19t-2 18l-37 215-62-4 66-318 69-4 46 213q1 2 1 4t1 4q2 8 2 15t1 15h1q0-10 2-19t3-19l47-219z m517-186v688h-344v-94h250v-31h-250v-63h250v-31h-250v-62h250v-32h-250v-62h250v-31h-250v-63h250v-31h-250v-63h250v-31h-250v-94h344z" horiz-adv-x="1000" />

<glyph glyph-name="excel" unicode="&#xf1e5;" d="M969 704v-656q0-13-9-22t-22-10h-344v-131l-563 130v690l563 130v-100h344q12 0 22-9t9-22z m-608-543l92-5-106 200 103 196-86-5-52-116q-4-8-6-17t-5-16h-1q-1 8-4 16t-5 15l-45 111-84-5 89-181-97-181 81-4 55 118 1 5t3 8 2 8 1 5h1q1-4 2-8t1-7q1-5 4-10z m577-113v656h-344v-63h94v-62h-94v-31h94v-63h-94v-31h94v-63h-94v-31h94v-62h-94v-32h94v-62h-94v-31h94v-63h-94v-62h344z m-63 500v-63h-156v63h156z m0 93v-62h-156v62h156z m0-281v-62h-156v62h156z m0-187v-63h-156v63h156z m0 93v-62h-156v62h156z m0 188v-63h-156v63h156z" horiz-adv-x="1000" />

<glyph glyph-name="outlook" unicode="&#xf1e9;" d="M969 579v-438q0-12-9-22t-22-9h-344v-223l-563 98v747l563 101v-223h344q12 0 22-9t9-22z m-500-216q0 34-9 67t-27 59-46 42-66 17q-42 0-73-16t-51-42-31-61-10-73q0-37 10-70t30-59 50-40 69-14q26 0 48 8t41 23 31 34 22 44q7 19 9 40t3 41z m469-222v438h-344v-138q2-2 11-11t21-20 25-25 25-24 19-18 8-7l3 1 232 226v-70l-218-205q-8-6-17-6t-16 6l-93 88v-235h344z m-550 217q0-18-4-38t-13-37-24-28-37-12q-24 0-40 11t-26 28-13 37-4 41q0 20 4 41t14 37 26 28 41 11q22 0 37-12t23-30 12-39 4-38z" horiz-adv-x="1000" />

<glyph glyph-name="newspaper" unicode="&#xf1ea;" d="M1078 735c26 0 47-21 47-47v-609c0-52-42-94-94-94h-922c-60 0-109 49-109 109v532c0 26 21 47 47 47h78v15c0 26 21 47 47 47h906z m-969-656c9 0 16 7 16 15v485h-31v-485c0-8 7-15 15-15z m461 31c13 0 24 11 24 23v16c0 13-11 24-24 24h-297c-12 0-23-11-23-24v-16c0-12 11-23 23-23h297z m407 0c13 0 23 11 23 23v16c0 13-10 24-23 24h-297c-13 0-24-11-24-24v-16c0-12 11-23 24-23h297z m-407 188c13 0 24 10 24 23v16c0 13-11 23-24 23h-297c-12 0-23-10-23-23v-16c0-13 11-23 23-23h297z m407 0c13 0 23 10 23 23v16c0 13-10 23-23 23h-297c-13 0-24-10-24-23v-16c0-13 11-23 24-23h297z m0 187c13 0 23 11 23 23v79c0 13-10 23-23 23h-704c-12 0-23-10-23-23v-79c0-12 11-23 23-23h704z" horiz-adv-x="1125" />

<glyph glyph-name="powerpoint" unicode="&#xf1eb;" d="M969 673v-625q0-13-9-22t-22-10h-344v-131l-563 130v690l563 130v-131h344q12 0 22-9t9-22z m-533-238q0 58-28 90t-89 33q-33 0-66-3t-65-4v-380l72-9v136q11 1 21 1t21 1q30 0 55 10t42 27 27 43 10 55z m502-387v625h-344v-137q17 21 42 32t52 11v-125h125q0-26-10-49t-27-40-40-26-48-10q-27 0-52 11t-42 31v-105h250v-31h-250v-62h250v-32h-250v-93h344z m-219 562q26 0 48-10t40-27 27-39 10-49h-125v125z m-367-180q0-31-16-47t-46-16h-30v118q9 1 17 2t18 2q29 0 43-15t14-44z" horiz-adv-x="1000" />

<glyph glyph-name="toggle-off" unicode="&#xf204;" d="M750 735c207 0 375-168 375-375s-168-375-375-375h-375c-207 0-375 168-375 375s168 375 375 375h375z m-625-375c0-138 112-250 250-250 138 0 250 112 250 250 0 138-112 250-250 250-138 0-250-112-250-250z m625-250c138 0 250 112 250 250 0 138-112 250-250 250h-95c127-142 127-358 0-500h95z" horiz-adv-x="1125" />

<glyph glyph-name="toggle-on" unicode="&#xf205;" d="M750 735c207 0 375-168 375-375s-168-375-375-375h-375c-207 0-375 168-375 375s168 375 375 375h375z m0-625c138 0 250 112 250 250 0 138-112 250-250 250-138 0-250-112-250-250 0-138 112-250 250-250z" horiz-adv-x="1125" />

<glyph glyph-name="user-secret" unicode="&#xf21b;" d="M750 258c75-46 125-128 125-223v-88c0-48-39-87-87-87h-700c-49 0-88 39-88 87v88c0 97 53 181 132 226l-51 118c-8 21 7 44 29 44h112c-21 36-34 79-34 125v0c-77 15-125 37-125 62 0 26 53 49 136 65 18 64 53 128 80 161 18 23 50 31 77 17l54-27c17-8 38-8 55 0l54 27c27 14 59 6 78-17 26-33 61-97 79-161 83-16 137-39 137-65 0-25-49-47-125-62v0c0-46-14-89-35-125h114c22 0 37-22 30-43z m-406-336l62 235-47 78-96 63z m187 0l82 376-97-63-47-78z m82 584c1 5 12 11 12 11v21c-55-7-119-11-187-11s-132 4-188 11v-21c0 0 11-7 13-11 7-24 13-48 32-66 15-14 92-49 125 49 5 17 30 17 36 0 31-92 105-67 125-49 18 18 24 42 32 66z" horiz-adv-x="875" />

<glyph glyph-name="sticky-note" unicode="&#xf249;" d="M875 180c0-21-12-51-27-66l-164-164c-15-15-45-28-67-28h-523c-52 0-94 42-94 94v688c0 52 42 94 94 94h687c52 0 94-42 94-94v-524z m-250-156l149 149h-149v-149z m156 680h-687v-688h437v203c0 26 21 47 47 47h203v438z" horiz-adv-x="875" />

<glyph glyph-name="clone" unicode="&#xf24d;" d="M906 860c52 0 94-42 94-94v-625c0-51-42-93-94-93h-93v-94c0-52-42-94-94-94h-625c-52 0-94 42-94 94v625c0 52 42 94 94 94h94v93c0 52 42 94 93 94h625z m-199-906c7 0 12 5 12 11v83h-438c-51 0-93 42-93 93v438h-82c-7 0-12-5-12-12v-602c0-6 5-11 12-11h601z m188 187c6 0 11 6 11 12v602c0 6-5 11-11 11h-602c-6 0-12-5-12-11v-602c0-6 6-12 12-12h602z" horiz-adv-x="1000" />

<glyph glyph-name="registered" unicode="&#xf25d;" d="M500 844c268 0 484-216 484-484s-216-484-484-484-484 217-484 484 217 484 484 484z m0-875c216 0 391 175 391 391 0 216-175 391-391 391-216 0-391-175-391-391 0-216 175-391 391-391z m216 160c8-15-3-35-21-35h-83 0c-8 0-17 6-21 13l-93 174h-62v-163c0-13-11-24-24-24h-75c-13 0-23 11-23 24v485c0 13 10 23 23 23h154c139 0 198-64 198-166 0-62-30-116-77-143 6-9 0 0 104-188z m-214 262c41 0 63 23 63 64 0 38-13 62-76 62h-53v-126h66z" horiz-adv-x="1000" />

<glyph glyph-name="calendar-check" unicode="&#xf274;" d="M781 735c52 0 94-42 94-94v-687c0-52-42-94-94-94h-687c-52 0-94 42-94 94v687c0 52 42 94 94 94h94v102c0 13 10 23 23 23h78c13 0 24-10 24-23v-102h250v102c0 13 10 23 23 23h78c13 0 24-10 24-23v-102h93z m-11-781c6 0 11 5 11 11v583h-687v-583c0-6 5-11 12-11h664z m-104 392l-278-276c-9-9-24-9-33 0l-146 148c-10 9-9 24 0 33l44 44c9 9 24 9 33 0l86-87 217 215c10 9 24 9 33 0l44-44c10-9 10-24 0-33z" horiz-adv-x="875" />

<glyph glyph-name="address-book" unicode="&#xf2b9;" d="M852 548h-39v-125h39c13 0 23-11 23-24v-78c0-13-10-23-23-23h-39v-125h39c13 0 23-11 23-24v-78c0-13-10-23-23-23h-39v-94c0-52-42-94-94-94h-625c-52 0-94 42-94 94v812c0 52 42 94 94 94h625c52 0 94-42 94-94v-93h39c13 0 23-11 23-24v-78c0-13-10-23-23-23z m-446 62c-69 0-125-56-125-125s56-125 125-125 125 56 125 125-56 125-125 125z m219-462v37c0 62-59 113-131 113h-10c-24-10-50-16-78-16s-53 6-77 16h-10c-73 0-131-51-131-113v-37c0-21 19-38 43-38h350c25 0 44 17 44 38z" horiz-adv-x="875" />

<glyph glyph-name="address-card" unicode="&#xf2bb;" d="M1031 798c52 0 94-42 94-94v-688c0-52-42-94-94-94h-937c-52 0-94 42-94 94v688c0 52 42 94 94 94h937z m-687-188c-69 0-125-56-125-125s56-125 125-125 125 56 125 125-56 125-125 125z m219-462v37c0 62-59 113-132 113h-9c-24-10-51-16-78-16s-54 6-78 16h-10c-72 0-131-51-131-113v-37c0-21 20-38 44-38h350c24 0 44 17 44 38z m437 103v31c0 9-7 16-16 16h-281c-8 0-15-7-15-16v-31c0-9 7-16 15-16h281c9 0 16 7 16 16z m0 125v31c0 9-7 16-16 16h-281c-8 0-15-7-15-16v-31c0-9 7-16 15-16h281c9 0 16 7 16 16z m0 125v31c0 9-7 16-16 16h-281c-8 0-15-7-15-16v-31c0-9 7-16 15-16h281c9 0 16 7 16 16z" horiz-adv-x="1125" />

<glyph glyph-name="user-circle" unicode="&#xf2bd;" d="M484 844c268 0 485-216 485-484s-217-484-485-484-484 216-484 484 217 484 484 484z m0-187c-94 0-171-77-171-172s77-172 171-172 172 77 172 172-77 172-172 172z m0-672c115 0 218 52 287 133-37 69-109 117-193 117-5 0-9-1-14-2-25-8-52-14-80-14s-54 6-79 14c-5 1-10 2-14 2-84 0-156-48-193-117 69-81 172-133 286-133z" horiz-adv-x="968.8" />

<glyph glyph-name="id-badge" unicode="&#xf2c1;" d="M656 860c52 0 94-42 94-94v-812c0-52-42-94-94-94h-562c-52 0-94 42-94 94v812c0 52 42 94 94 94h562z m0-906v812h-562v-812h562z m-375 687c-17 0-31 14-31 32s14 31 31 31h188c17 0 31-14 31-31s-14-32-31-32h-188z m94-343c-69 0-125 56-125 125s56 125 125 125 125-57 125-125-56-125-125-125z m-175-250c-24 0-44 16-44 37v38c0 62 59 112 132 112 22 0 35-16 87-16 51 0 66 16 88 16 72 0 131-50 131-112v-38c0-21-20-37-44-37h-350z" horiz-adv-x="750" />

<glyph glyph-name="sign-out-alt" unicode="&#xf2f5;" d="M971 327l-328-328c-30-30-80-9-80 33v187h-266c-26 0-47 21-47 47v188c0 26 21 47 47 47h266v187c0 42 50 63 80 33l328-328c18-18 18-48 0-66z m-596-319c0-13-10-23-23-23h-164c-104 0-188 84-188 188v375c0 103 84 187 188 187h164c13 0 23-10 23-23v-79c0-12-10-23-23-23h-164c-35 0-63-28-63-62v-375c0-35 28-63 63-63h164c13 0 23-10 23-23v-79z" horiz-adv-x="982.4" />

<glyph glyph-name="sign-in-alt" unicode="&#xf2f6;" d="M813-15h-165c-12 0-23 10-23 23v79c0 13 11 23 23 23h165c34 0 62 28 62 63v375c0 34-28 62-62 62h-165c-12 0-23 11-23 23v79c0 13 11 23 23 23h165c103 0 187-84 187-187v-375c0-104-84-188-187-188z m-92 393c18-19 18-48 0-67l-328-328c-30-29-80-9-80 33v188h-266c-26 0-47 21-47 47v187c0 26 21 47 47 47h266v188c0 42 50 62 80 33z" horiz-adv-x="1000" />

<glyph glyph-name="pencil-alt" unicode="&#xf303;" d="M973 583l-91-91c-9-9-24-9-33 0l-217 217c-9 9-9 24 0 33l91 91c36 36 95 36 132 0l118-118c36-36 36-96 0-132z m-418 82c9 9 24 9 34 0l216-217c10-9 10-24 0-33l-513-513-237-41c-32-6-60 22-54 54l41 237z m-313-469c11-11 28-11 39 0l301 301c11 11 11 28 0 39s-28 10-39 0l-301-301c-10-11-10-28 0-39z m-70-164v94h-71l-22-126 61-61 126 22v71h-94z" horiz-adv-x="1000" />

<glyph glyph-name="clipboard" unicode="&#xf328;" d="M656 735c52 0 94-42 94-94v-687c0-52-42-94-94-94h-562c-52 0-94 42-94 94v687c0 52 42 94 94 94h156c0 69 56 125 125 125s125-56 125-125h156z m-281 47c-26 0-47-21-47-47s21-47 47-47 47 21 47 47-21 47-47 47z m281-817v665c0 6-5 11-11 11h-82v-70c0-13-11-23-24-23h-328c-13 0-23 10-23 23v70h-82c-7 0-12-5-12-11v-665c0-6 5-11 12-11h539c6 0 11 5 11 11z" horiz-adv-x="750" />

<glyph glyph-name="external-link-alt" unicode="&#xf35d;" d="M1125 813v-250c0-42-51-62-80-33l-70 70-475-476c-19-18-48-18-67 0l-44 44c-18 19-18 48 0 67l476 475-70 70c-29 29-9 80 33 80h250c26 0 47-21 47-47z m-330-482c30 30 80 9 80-33v-344c0-52-42-94-94-94h-687c-52 0-94 42-94 94v687c0 52 42 94 94 94h578c42 0 63-50 33-80l-31-31c-8-8-23-14-33-14h-516v-625h625v282 0c0 10 6 25 14 33z" horiz-adv-x="1125" />

<glyph glyph-name="map-marker-alt" unicode="&#xf3c5;" d="M337-120c-284 412-337 454-337 605 0 207 168 375 375 375s375-168 375-375c0-151-53-193-336-605-19-27-59-27-77 0z m38 449c86 0 156 70 156 156s-70 156-156 156-156-70-156-156 70-156 156-156z" horiz-adv-x="750" />

<glyph glyph-name="microsoft" unicode="&#xf3ca;" d="M0 798h419v-420h-419v420z m456 0h419v-420h-419v420z m-456-456h419v-420h-419v420z m456 0h419v-420h-419v420z" horiz-adv-x="875" />

<glyph glyph-name="user-friends" unicode="&#xf500;" d="M375 360c-121 0-219 98-219 219s98 219 219 219 219-98 219-219-98-219-219-219z m150-62c124 0 225-101 225-225v-57c0-52-42-94-94-94h-562c-52 0-94 42-94 94v57c0 124 101 225 225 225h16c41-20 86-32 134-32s93 12 134 32h16z m413 62c-104 0-188 84-188 188s84 187 188 187 187-84 187-187-84-188-187-188z m93-62c121 0 219-98 219-219 0-52-42-94-94-94h-345c1 4 2 8 2 12v76c0 75-30 143-78 194 32 19 69 31 109 31h7c27-10 56-16 87-16s59 6 86 16h7z" horiz-adv-x="1250" />

<glyph glyph-name="file-signature" unicode="&#xf573;" d="M426 32c14-29 43-46 74-47l250 0v-78c0-26-21-47-47-47h-656c-26 0-47 21-47 47v906c0 26 21 47 47 47h391v-266c0-25 21-46 46-46h266v-91l-250-249v-160c-7 1-15 5-18 12-24 47-91 60-129 28l-27 81c-7 19-25 32-45 32s-38-13-44-32l-36-106c-3-9-11-15-21-15h-24c-17 0-31-14-31-32s14-31 31-31h24c37 0 69 23 81 58l20 62 33-99c9-26 45-29 58-4l15 30c5 11 15 12 19 12s14-1 20-12z m324 590v-12h-250v250h12c12 0 24-5 33-14l191-191c9-9 14-21 14-33z m-187-440l317 316 133-133-316-317h-134v134z m547 351c20-19 20-51 0-70l-53-53-132 132 53 53c19 20 51 20 70 0z" horiz-adv-x="1125" />

<glyph glyph-name="headset" unicode="&#xf590;" d="M375 454v-219c0-34-28-62-62-62h-32c-69 0-125 56-125 125v93c0 69 56 125 125 125h32c34 0 62-28 62-62z m344-281h-31c-35 0-63 28-63 62v219c0 34 28 62 63 62h31c69 0 125-56 125-125v-93c0-69-56-125-125-125z m-219 687c279 0 491-232 500-500v-324c0-97-79-176-176-176h-355c-52 0-94 42-94 94s42 94 94 94h62c52 0 94-42 94-94h199c45 0 82 37 82 82 0 0 0 319 0 324h0c0 224-182 406-406 406s-406-182-406-406v-31c0-17-14-31-31-31h-32c-17 0-31 14-31 31v31c9 268 221 500 500 500z" horiz-adv-x="1000" />

<glyph glyph-name="hot-tub" unicode="&#xf593;" d="M809 513c-6 50-28 94-62 121-55 45-90 114-98 190-2 19 12 36 31 36h31c16 0 29-12 31-28 6-50 29-94 63-121 54-45 89-114 98-190 2-19-13-36-32-36h-31c-16 0-29 12-31 28z m-211 0c-6 50-28 94-62 121-54 45-90 114-98 190-2 19 12 36 31 36h32c15 0 28-12 30-28 6-50 29-94 63-121 54-45 89-114 98-190 2-19-13-36-32-36h-31c-16 0-29 12-31 28z m340-153c34 0 62-28 62-62v-313c0-69-56-125-125-125h-750c-69 0-125 56-125 125v438c0 69 56 125 125 125h83 0c23 0 57-12 75-25l217-163h438z m-688-359v218c0 9-7 16-16 16h-31c-8 0-15-7-15-16v-218c0-9 7-16 15-16h31c9 0 16 7 16 16z m188 0v218c0 9-7 16-16 16h-31c-9 0-16-7-16-16v-218c0-9 7-16 16-16h31c9 0 16 7 16 16z m187 0v218c0 9-7 16-16 16h-31c-8 0-15-7-15-16v-218c0-9 7-16 15-16h31c9 0 16 7 16 16z m188 0v218c0 9-7 16-16 16h-31c-9 0-16-7-16-16v-218c0-9 7-16 16-16h31c9 0 16 7 16 16z m-688 609c-69 0-125 56-125 125s56 125 125 125 125-56 125-125-56-125-125-125z" horiz-adv-x="1000" />

<glyph glyph-name="funnel-dollar" unicode="&#xf662;" d="M847 536c-163-41-284-188-284-363 0-107 44-202 115-271-21-40-75-57-115-26l-157 117c-19 15-31 38-31 63v304l-357 394c-39 39-11 106 44 106h939c55 0 82-67 43-106z m91-51c172 0 312-140 312-312s-140-313-312-313-313 140-313 313 140 312 313 312z m31-468c46 1 83 40 83 88 0 39-25 73-62 84l-87 27c-11 3-18 13-18 25 0 14 11 25 23 25h55c9 0 18-2 25-7 7-4 15-4 20 1l23 22c7 7 7 18-1 24-18 13-39 21-61 22v32c0 9-7 16-16 16h-31c-9 0-16-7-16-16v-31c-46-2-83-41-83-88 0-39 25-74 62-85l88-27c10-3 17-13 17-24 0-15-11-26-23-26h-55c-9 0-18 2-25 7-7 4-15 4-20-1l-23-22c-7-7-7-18 1-24 18-13 39-21 61-22v-32c0-9 7-16 16-16h31c9 0 16 7 16 16v32z" horiz-adv-x="1250" />

<glyph glyph-name="adobe" unicode="&#xf778;" d="M566 734h334v-750z m-232 0l-334-750v750h334z m116-277l210-473h-143l-60 150h-153z" horiz-adv-x="898.4" />
</font>
</defs>
</svg>
